<?xml version="1.0" encoding="UTF-8"?>
<!DOCTYPE svg PUBLIC "-//W3C//DTD SVG 1.1//EN" "http://www.w3.org/Graphics/SVG/1.1/DTD/svg11.dtd">
<svg xmlns="http://www.w3.org/2000/svg" version="1.1" width="512px" height="512px" style="shape-rendering:geometricPrecision; text-rendering:geometricPrecision; image-rendering:optimizeQuality; fill-rule:evenodd; clip-rule:evenodd" xmlns:xlink="http://www.w3.org/1999/xlink">
<g><path style="opacity:0.972" fill="#000000" d="M 246.5,35.5 C 289.44,34.2072 320.606,52.5405 340,90.5C 344.742,102.375 347.242,114.708 347.5,127.5C 363.17,127.333 378.837,127.5 394.5,128C 418.112,133.945 432.612,148.778 438,172.5C 444.401,237.01 450.901,301.51 457.5,366C 453.417,422.07 424.417,457.736 370.5,473C 365.857,473.83 361.19,474.497 356.5,475C 289.167,475.667 221.833,475.667 154.5,475C 105.748,468.578 73.5817,442.078 58,395.5C 55.5267,386.326 54.0267,376.993 53.5,367.5C 60.066,302.84 66.566,238.174 73,173.5C 77.9366,149.229 92.4366,134.063 116.5,128C 132.163,127.5 147.83,127.333 163.5,127.5C 167.42,75.253 195.087,44.5864 246.5,35.5 Z M 246.5,73.5 C 279.547,71.7327 300.38,86.7327 309,118.5C 309.498,121.482 309.665,124.482 309.5,127.5C 273.5,127.5 237.5,127.5 201.5,127.5C 203.452,98.5539 218.452,80.5539 246.5,73.5 Z M 123.5,164.5 C 211.167,164.333 298.834,164.5 386.5,165C 394,167.167 398.833,172 401,179.5C 407.167,241.834 413.333,304.167 419.5,366.5C 416.054,405.115 395.387,428.615 357.5,437C 289.167,437.667 220.833,437.667 152.5,437C 115.872,428.374 95.5389,405.374 91.5,368C 97.5676,305.157 103.734,242.324 110,179.5C 111.923,172.082 116.423,167.082 123.5,164.5 Z"/></g>
<g><path style="opacity:0.964" fill="#000000" d="M 176.5,200.5 C 189.658,198.529 197.825,203.862 201,216.5C 203.39,250.63 221.557,269.63 255.5,273.5C 282.287,271.529 299.787,257.862 308,232.5C 308.796,224.727 310.13,217.061 312,209.5C 317.463,201.527 324.963,198.693 334.5,201C 343.582,204.481 347.916,211.148 347.5,221C 343.649,267.39 319.315,296.723 274.5,309C 233.245,315.279 200.745,301.446 177,267.5C 167.165,251.162 162.832,233.495 164,214.5C 165.954,207.72 170.12,203.053 176.5,200.5 Z"/></g>
</svg>
