<?xml version="1.0" encoding="UTF-8"?>
<!DOCTYPE svg PUBLIC "-//W3C//DTD SVG 1.1//EN" "http://www.w3.org/Graphics/SVG/1.1/DTD/svg11.dtd">
<svg xmlns="http://www.w3.org/2000/svg" version="1.1" width="512px" height="512px" style="shape-rendering:geometricPrecision; text-rendering:geometricPrecision; image-rendering:optimizeQuality; fill-rule:evenodd; clip-rule:evenodd" xmlns:xlink="http://www.w3.org/1999/xlink">
<g><path style="opacity:0.964" fill="#000000" d="M 246.5,25.5 C 296.684,24.1707 335.184,44.504 362,86.5C 383.634,127.327 383.968,168.327 363,209.5C 334.471,254.848 293.304,275.348 239.5,271C 189.267,262.475 155.434,234.308 138,186.5C 124.212,134.471 137.045,90.3042 176.5,54C 197.046,37.5575 220.379,28.0575 246.5,25.5 Z M 248.5,58.5 C 289.654,57.9843 319.488,75.9843 338,112.5C 353.585,155.391 344.085,191.558 309.5,221C 273.5,245.667 237.5,245.667 201.5,221C 168.62,193.331 158.453,158.831 171,117.5C 185.798,83.1873 211.631,63.5207 248.5,58.5 Z"/></g>
<g><path style="opacity:0.962" fill="#000000" d="M 233.5,303.5 C 297.758,298.214 354.424,316.047 403.5,357C 435.32,386.311 452.654,422.644 455.5,466C 455.4,477.098 449.9,483.598 439,485.5C 431.407,485.042 426.073,481.376 423,474.5C 421.461,429.579 402.294,394.413 365.5,369C 308.094,333.242 247.427,326.575 183.5,349C 144.118,363.597 115.285,389.764 97,427.5C 91.4209,442.304 88.4209,457.637 88,473.5C 84.5233,482.326 78.0233,486.159 68.5,485C 59.4344,481.93 55.101,475.597 55.5,466C 57.3288,428.526 70.8288,396.026 96,368.5C 134.037,330.567 179.87,308.9 233.5,303.5 Z"/></g>
</svg>
