<?xml version="1.0" encoding="UTF-8"?>
<!DOCTYPE svg PUBLIC "-//W3C//DTD SVG 1.1//EN" "http://www.w3.org/Graphics/SVG/1.1/DTD/svg11.dtd">
<svg xmlns="http://www.w3.org/2000/svg" version="1.1" width="512px" height="512px" style="shape-rendering:geometricPrecision; text-rendering:geometricPrecision; image-rendering:optimizeQuality; fill-rule:evenodd; clip-rule:evenodd" xmlns:xlink="http://www.w3.org/1999/xlink">
<g><path style="opacity:0.969" fill="#000000" d="M 254.5,26.5 C 290.774,24.0256 312.941,40.359 321,75.5C 321.5,99.4977 321.667,123.498 321.5,147.5C 341.862,147.131 362.195,147.631 382.5,149C 426.333,158.167 452.833,184.667 462,228.5C 462.961,239.819 463.794,251.153 464.5,262.5C 475.275,268.103 482.108,276.77 485,288.5C 485.667,308.833 485.667,329.167 485,349.5C 482.108,361.23 475.275,369.897 464.5,375.5C 466.007,409.843 454.34,438.677 429.5,462C 414.679,474.17 397.679,481.503 378.5,484C 288.833,484.667 199.167,484.667 109.5,484C 62.784,475.617 34.9506,448.117 26,401.5C 25.3333,318.833 25.3333,236.167 26,153.5C 31.3972,127.437 45.8972,108.271 69.5,96C 131.094,72.3067 192.76,49.1401 254.5,26.5 Z M 258.5,59.5 C 273.67,57.6627 283.503,63.9961 288,78.5C 288.5,101.498 288.667,124.498 288.5,147.5C 227.812,147.039 167.146,147.539 106.5,149C 88.3604,151.822 72.5271,159.322 59,171.5C 57.3232,152.02 64.8232,137.187 81.5,127C 140.588,104.445 199.588,81.9445 258.5,59.5 Z M 116.5,180.5 C 204.193,180.018 291.86,180.518 379.5,182C 416.78,193.672 433.78,219.172 430.5,258.5C 417.125,258.143 403.792,258.643 390.5,260C 369.431,265.402 354.931,278.236 347,298.5C 338.878,326.8 346.378,349.966 369.5,368C 376.828,372.889 384.828,376.222 393.5,378C 405.829,378.5 418.162,378.667 430.5,378.5C 431.699,417.116 413.699,441.283 376.5,451C 288.5,451.667 200.5,451.667 112.5,451C 83.1153,445.282 65.2819,427.782 59,398.5C 58.3333,343.5 58.3333,288.5 59,233.5C 66.5645,203.097 85.7311,185.431 116.5,180.5 Z M 399.5,291.5 C 416.17,291.333 432.837,291.5 449.5,292C 450.333,292.833 451.167,293.667 452,294.5C 452.667,310.833 452.667,327.167 452,343.5C 451.5,344 451,344.5 450.5,345C 434.926,346.635 419.259,346.968 403.5,346C 389.351,344.185 380.517,336.352 377,322.5C 376.242,306.101 383.742,295.767 399.5,291.5 Z"/></g>
<g><path style="opacity:0.964" fill="#000000" d="M 132.5,238.5 C 185.501,238.333 238.501,238.5 291.5,239C 299.113,241.536 303.113,246.869 303.5,255C 303.185,263.645 298.851,268.978 290.5,271C 238.167,271.667 185.833,271.667 133.5,271C 123.085,267.458 119.252,260.291 122,249.5C 123.658,244.01 127.158,240.343 132.5,238.5 Z"/></g>
</svg>
